<svg xmlns="http://www.w3.org/2000/svg" width="167" height="36" viewBox="0 0 167 36"><g><g><g><g><path fill="#fff" d="M42.297 28.646c.287.176.51.425.67.75.161.323.242.699.242 1.126v2.715a.349.349 0 0 1-.1.26.352.352 0 0 1-.26.099.37.37 0 0 1-.264-.1.341.341 0 0 1-.104-.259v-2.715c0-.447-.115-.8-.345-1.06-.23-.261-.53-.393-.902-.393-.397 0-.718.133-.964.397-.245.264-.365.61-.359 1.037v2.734a.349.349 0 0 1-.1.26.352.352 0 0 1-.259.099.37.37 0 0 1-.265-.1.341.341 0 0 1-.104-.259v-2.715c0-.447-.114-.8-.344-1.06-.23-.261-.53-.393-.903-.393-.39 0-.711.13-.963.387-.252.259-.378.589-.378.99v2.791a.35.35 0 0 1-.1.26.354.354 0 0 1-.26.099.37.37 0 0 1-.264-.1.34.34 0 0 1-.104-.259v-4.431c0-.106.034-.195.104-.264a.36.36 0 0 1 .264-.104c.108 0 .194.035.26.104a.37.37 0 0 1 .1.264v.208c.176-.202.385-.357.628-.467.243-.11.506-.165.789-.165.346 0 .658.078.936.235.277.158.497.378.66.66.183-.282.421-.502.714-.66.293-.157.622-.235.988-.235.371 0 .7.088.987.264"/></g><g><path fill="#fff" d="M48.088 28.732c.4.23.715.545.945.947.23.403.345.849.345 1.34v2.215a.356.356 0 0 1-.369.358.369.369 0 0 1-.264-.099.341.341 0 0 1-.104-.26v-.565c-.22.303-.5.54-.841.712-.34.174-.715.26-1.124.26a2.492 2.492 0 0 1-2.216-1.288 2.677 2.677 0 0 1-.336-1.333c0-.491.115-.937.345-1.34.23-.402.545-.718.945-.947.4-.23.846-.344 1.337-.344s.937.115 1.337.344m-.364 3.993c.29-.17.519-.404.685-.702a2.02 2.02 0 0 0 .25-1.004c0-.37-.083-.706-.25-1.005a1.869 1.869 0 0 0-1.658-.967 1.886 1.886 0 0 0-1.668.967c-.167.299-.25.634-.25 1.005 0 .37.083.705.25 1.004.167.298.397.533.69.702.293.17.619.254.978.254.36 0 .683-.084.973-.254"/></g><g><path fill="#fff" d="M54.07 28.732c.4.23.715.545.945.947.23.403.345.849.345 1.34v2.215a.356.356 0 0 1-.369.358.369.369 0 0 1-.264-.099.341.341 0 0 1-.105-.26v-.565c-.22.303-.5.54-.84.712-.34.174-.716.26-1.125.26a2.492 2.492 0 0 1-2.215-1.288 2.677 2.677 0 0 1-.336-1.333c0-.491.115-.937.345-1.34.23-.402.545-.718.945-.947.4-.23.845-.344 1.337-.344.491 0 .937.115 1.337.344m-.364 3.993c.29-.17.518-.404.685-.702a2.02 2.02 0 0 0 .25-1.004c0-.37-.083-.706-.25-1.005a1.869 1.869 0 0 0-1.658-.967 1.886 1.886 0 0 0-1.668.967c-.167.299-.25.634-.25 1.005 0 .37.083.705.25 1.004.167.298.397.533.69.702.293.17.618.254.978.254.359 0 .683-.084.973-.254"/></g><g><path fill="#fff" d="M60.349 33.29c0 .094-.045.18-.132.255a.377.377 0 0 1-.227.085.312.312 0 0 1-.255-.133l-1.947-2.384-.708.64v1.48a.35.35 0 0 1-.1.26.352.352 0 0 1-.26.099.354.354 0 0 1-.26-.099.35.35 0 0 1-.099-.26v-6.646a.35.35 0 0 1 .1-.26.354.354 0 0 1 .26-.1c.107 0 .193.034.26.1a.35.35 0 0 1 .099.26v4.29l2.664-2.404a.329.329 0 0 1 .227-.095c.094 0 .173.038.236.113.069.081.104.157.104.227 0 .088-.04.166-.123.235l-1.89 1.707 1.966 2.414a.313.313 0 0 1 .085.216"/></g><g><path fill="#fff" d="M68.292 28.533c.07.066.104.153.104.26v4.432a.358.358 0 0 1-.104.264.36.36 0 0 1-.265.102.341.341 0 0 1-.26-.102.367.367 0 0 1-.099-.264v-.322c-.208.233-.46.416-.756.548a2.343 2.343 0 0 1-.963.197 2.54 2.54 0 0 1-1.205-.282 2.039 2.039 0 0 1-.837-.825c-.2-.361-.302-.793-.302-1.297v-2.452c0-.1.035-.185.104-.254a.348.348 0 0 1 .255-.104.358.358 0 0 1 .369.358v2.452c0 .56.156.986.468 1.279.312.291.719.437 1.223.437.309 0 .587-.059.837-.18.248-.118.445-.282.59-.494.145-.21.217-.444.217-.703v-2.79a.35.35 0 0 1 .1-.26.352.352 0 0 1 .26-.099c.106 0 .194.034.264.1"/></g><g><path fill="#fff" d="M75.297 28.525a.305.305 0 0 1 .085.226.47.47 0 0 1-.038.198l-1.474 4.413a.349.349 0 0 1-.34.236.39.39 0 0 1-.222-.066.295.295 0 0 1-.128-.17l-1.134-3.753-1.134 3.753a.32.32 0 0 1-.132.174.37.37 0 0 1-.208.061.346.346 0 0 1-.212-.065.432.432 0 0 1-.137-.17l-1.474-4.413a.81.81 0 0 1-.029-.198c0-.208.1-.311.303-.311.176 0 .296.091.359.273l1.209 3.678 1.115-3.668a.409.409 0 0 1 .128-.208.347.347 0 0 1 .23-.075c.096 0 .173.025.232.075.06.05.103.12.128.208l1.087 3.649 1.2-3.659c.062-.182.18-.273.35-.273.1 0 .179.028.236.085"/></g><g><path fill="#fff" d="M78.336 28.713v-2.112c0-.106.034-.195.1-.264a.342.342 0 0 1 .26-.103.36.36 0 0 1 .264.103c.069.069.104.158.104.264v2.763c.22-.302.5-.539.84-.711.341-.174.716-.26 1.125-.26.479 0 .912.115 1.3.344.387.23.693.544.916.943.224.4.336.844.336 1.333 0 .492-.116.938-.345 1.34a2.51 2.51 0 0 1-.945.947c-.4.23-.846.345-1.337.345-.492 0-.937-.115-1.337-.345a2.51 2.51 0 0 1-.945-.947 2.657 2.657 0 0 1-.345-1.34v-2.215c0-.037.003-.066.01-.085m2.617 4.272a1.881 1.881 0 0 0 1.667-.966c.167-.3.251-.635.251-1.006 0-.37-.084-.704-.25-1.003a1.824 1.824 0 0 0-.69-.703 1.917 1.917 0 0 0-.978-.254c-.498 0-.921.157-1.271.472-.35.314-.556.715-.619 1.206a.102.102 0 0 1-.01.047c-.005.05-.009.13-.009.235 0 .371.083.706.25 1.006a1.869 1.869 0 0 0 1.659.966"/></g><g><path fill="#fff" d="M88.034 28.713c.359.217.638.517.836.901.199.383.298.82.298 1.31a.315.315 0 0 1-.095.24.342.342 0 0 1-.245.09H85.01c.05.516.25.933.604 1.254.353.321.794.481 1.323.481.227 0 .455-.039.685-.118.23-.078.415-.177.553-.297a.414.414 0 0 1 .255-.094.35.35 0 0 1 .208.076c.082.075.123.16.123.254a.286.286 0 0 1-.104.217 2.533 2.533 0 0 1-.794.438c-.321.117-.63.175-.926.175-.504 0-.955-.112-1.351-.335a2.386 2.386 0 0 1-.93-.933 2.717 2.717 0 0 1-.337-1.353c0-.509.106-.964.317-1.363.211-.399.504-.71.88-.933a2.454 2.454 0 0 1 1.28-.335c.465 0 .878.108 1.237.325m-2.428.769c-.316.295-.508.685-.577 1.169h3.458c-.05-.484-.227-.874-.529-1.17-.302-.295-.69-.442-1.162-.442-.479 0-.875.147-1.19.443"/></g><g><path fill="#fff" d="M94.77 28.798v2.216c0 .49-.115.937-.345 1.339-.23.403-.545.718-.945.947-.4.23-.845.345-1.337.345a2.63 2.63 0 0 1-1.337-.345 2.502 2.502 0 0 1-.945-.947 2.65 2.65 0 0 1-.344-1.339c0-.49.111-.935.335-1.334a2.488 2.488 0 0 1 2.216-1.287c.409 0 .784.086 1.124.26.34.173.62.41.841.71v-2.761a.356.356 0 0 1 .368-.368.34.34 0 0 1 .26.103c.067.07.1.158.1.265v2.111a.28.28 0 0 1 .01.085m-1.659 3.927c.29-.172.517-.408.684-.706.167-.3.25-.635.25-1.005 0-.107-.003-.185-.01-.236a.1.1 0 0 1-.009-.047 1.89 1.89 0 0 0-.618-1.206 1.827 1.827 0 0 0-1.269-.472c-.358 0-.684.085-.976.254-.293.17-.522.405-.689.703-.167.299-.25.633-.25 1.004 0 .37.083.705.25 1.005a1.876 1.876 0 0 0 1.665.966c.359 0 .683-.086.972-.26"/></g><g><path fill="#fff" d="M99.019 28.486c.155.069.231.166.231.292a.284.284 0 0 1-.009.085c-.025.088-.065.147-.118.18a.44.44 0 0 1-.222.046c-.057 0-.155-.006-.293-.019a2.132 2.132 0 0 0-.227-.01c-.472 0-.858.127-1.157.378-.3.251-.449.578-.449.98v2.82c0 .113-.031.201-.095.263-.063.064-.15.095-.265.095-.112 0-.2-.03-.264-.095a.356.356 0 0 1-.094-.264v-4.44c0-.113.031-.201.094-.264a.358.358 0 0 1 .264-.095c.114 0 .202.032.265.095a.354.354 0 0 1 .095.264v.415a1.87 1.87 0 0 1 .7-.613c.283-.145.588-.217.916-.217.264 0 .474.035.628.104"/></g><g><path fill="#fff" d="M100.845 26.572a.51.51 0 0 0-.359-.141.52.52 0 0 0-.368.141.479.479 0 0 0-.15.368.509.509 0 0 0 .508.519c.145 0 .268-.05.37-.151a.5.5 0 0 0 .15-.368.481.481 0 0 0-.15-.368m-.624 1.97a.358.358 0 0 0-.104.265v4.422c0 .106.034.195.104.264a.36.36 0 0 0 .264.104.342.342 0 0 0 .26-.104c.067-.069.1-.158.1-.264v-4.422a.364.364 0 0 0-.1-.264.342.342 0 0 0-.26-.104.36.36 0 0 0-.264.104"/></g><g><path fill="#fff" d="M102.84 34.737c-.19.333-.451.594-.785.783-.334.19-.715.283-1.143.283a.359.359 0 0 1-.369-.369.356.356 0 0 1 .369-.367c.434 0 .79-.138 1.067-.415.277-.277.416-.629.416-1.056v-4.789c0-.107.033-.195.1-.264a.34.34 0 0 1 .26-.104.36.36 0 0 1 .264.104.36.36 0 0 1 .104.264v4.79c0 .426-.094.807-.284 1.14m.274-8.165a.48.48 0 0 1 .152.368.5.5 0 0 1-.152.368.506.506 0 0 1-.368.15.507.507 0 0 1-.51-.518.48.48 0 0 1 .15-.368.522.522 0 0 1 .37-.141.51.51 0 0 1 .358.141"/></g><g><path fill="#fff" d="M105.891 27.303c-.21.277-.316.644-.316 1.103v.217h1.134c.1 0 .18.03.24.09s.091.136.091.23a.3.3 0 0 1-.09.222c-.06.06-.14.09-.241.09h-1.134v3.97a.365.365 0 0 1-.1.268.379.379 0 0 1-.278.1.34.34 0 0 1-.25-.1.363.363 0 0 1-.1-.268v-3.97h-.604a.322.322 0 0 1-.241-.09.297.297 0 0 1-.09-.222c0-.094.03-.17.09-.23s.14-.09.24-.09h.605v-.179c0-.672.174-1.21.52-1.612.346-.403.835-.604 1.465-.604.107 0 .195.032.264.095.07.063.104.141.104.235a.305.305 0 0 1-.104.236.378.378 0 0 1-.264.094c-.416 0-.73.138-.94.415"/></g><g><path fill="#fff" d="M109.962 28.713v-2.112c0-.106.033-.195.1-.264a.342.342 0 0 1 .259-.103.36.36 0 0 1 .264.103c.07.069.105.158.105.264v2.763c.22-.302.5-.539.84-.711.34-.174.715-.26 1.125-.26.478 0 .911.115 1.299.344.387.23.693.544.916.943.224.4.336.844.336 1.333 0 .492-.116.938-.345 1.34a2.51 2.51 0 0 1-.945.947c-.4.23-.845.345-1.337.345s-.937-.115-1.337-.345a2.51 2.51 0 0 1-.945-.947 2.657 2.657 0 0 1-.345-1.34v-2.215c0-.037.003-.066.01-.085m2.617 4.272a1.881 1.881 0 0 0 1.668-.966c.167-.3.25-.635.25-1.006 0-.37-.083-.704-.25-1.003a1.824 1.824 0 0 0-.69-.703 1.917 1.917 0 0 0-.978-.254c-.498 0-.921.157-1.27.472-.35.314-.557.715-.62 1.206a.102.102 0 0 1-.01.047c-.005.05-.009.13-.009.235 0 .371.084.706.25 1.006a1.869 1.869 0 0 0 1.659.966"/></g><g><path fill="#fff" d="M119.66 28.713c.358.217.638.517.835.901.199.383.298.82.298 1.31a.315.315 0 0 1-.094.24.342.342 0 0 1-.246.09h-3.817c.05.516.251.933.604 1.254.353.321.794.481 1.323.481.227 0 .455-.039.685-.118.23-.078.415-.177.553-.297a.414.414 0 0 1 .255-.094.35.35 0 0 1 .208.076c.082.075.123.16.123.254a.286.286 0 0 1-.104.217 2.533 2.533 0 0 1-.794.438c-.32.117-.63.175-.926.175-.504 0-.954-.112-1.351-.335a2.386 2.386 0 0 1-.93-.933 2.717 2.717 0 0 1-.336-1.353c0-.509.106-.964.316-1.363.211-.399.504-.71.88-.933a2.454 2.454 0 0 1 1.28-.335c.466 0 .878.108 1.237.325m-2.428.769c-.315.295-.507.685-.577 1.169h3.459c-.051-.484-.227-.874-.53-1.17-.302-.295-.69-.442-1.161-.442-.48 0-.876.147-1.19.443"/></g><g><path fill="#fff" d="M124.128 32.973c.063.07.095.157.095.263a.334.334 0 0 1-.113.256.404.404 0 0 1-.284.102h-.198a1.687 1.687 0 0 1-1.517-.89 1.925 1.925 0 0 1-.223-.929v-2.517h-.613a.324.324 0 0 1-.24-.09.299.299 0 0 1-.09-.222.31.31 0 0 1 .09-.23c.059-.06.139-.09.24-.09h.613v-1.461c0-.108.034-.195.1-.264a.342.342 0 0 1 .26-.104.357.357 0 0 1 .368.368v1.46h1.068c.1 0 .181.031.241.09.06.06.09.137.09.231a.3.3 0 0 1-.09.222c-.06.06-.14.09-.24.09h-1.069v2.517c0 .32.095.583.284.788a.945.945 0 0 0 .728.306h.255c.1 0 .182.035.245.104"/></g><g><path fill="#fff" d="M128.422 28.713c.36.217.639.517.837.901.198.383.298.82.298 1.31a.315.315 0 0 1-.095.24.342.342 0 0 1-.246.09H125.4c.05.516.251.933.605 1.254.352.321.793.481 1.322.481.227 0 .455-.039.686-.118.229-.078.414-.177.552-.297a.414.414 0 0 1 .255-.094.35.35 0 0 1 .208.076c.082.075.123.16.123.254a.286.286 0 0 1-.104.217 2.533 2.533 0 0 1-.794.438c-.32.117-.63.175-.926.175-.504 0-.954-.112-1.351-.335a2.386 2.386 0 0 1-.93-.933 2.717 2.717 0 0 1-.336-1.353c0-.509.106-.964.316-1.363.212-.399.504-.71.88-.933a2.454 2.454 0 0 1 1.28-.335c.466 0 .878.108 1.237.325m-2.428.769c-.315.295-.507.685-.576 1.169h3.458c-.05-.484-.227-.874-.53-1.17-.302-.295-.69-.442-1.161-.442-.48 0-.876.147-1.19.443"/></g><g><path fill="#fff" d="M133.332 28.486c.155.069.232.166.232.292a.284.284 0 0 1-.01.085c-.024.088-.064.147-.118.18a.44.44 0 0 1-.221.046c-.057 0-.155-.006-.293-.019a2.132 2.132 0 0 0-.227-.01c-.472 0-.859.127-1.158.378-.3.251-.448.578-.448.98v2.82c0 .113-.032.201-.095.263-.063.064-.151.095-.265.095-.113 0-.201-.03-.264-.095a.356.356 0 0 1-.094-.264v-4.44c0-.113.031-.201.094-.264a.358.358 0 0 1 .264-.095c.114 0 .202.032.265.095a.354.354 0 0 1 .095.264v.415a1.87 1.87 0 0 1 .699-.613c.283-.145.588-.217.916-.217.265 0 .474.035.628.104"/></g><g><path fill="#fff" d="M133.61 32.808c.108.11.16.24.16.392 0 .15-.052.28-.16.386a.531.531 0 0 1-.387.16.53.53 0 0 1-.388-.16.524.524 0 0 1-.16-.386c0-.157.055-.29.165-.396a.535.535 0 0 1 .77.004"/></g><g><path fill="#eb6419" d="M10.985 7.031a7.11 7.11 0 0 1 2.618 2.638c.643 1.117.964 2.361.964 3.733v5.884a1.309 1.309 0 0 1-1.348 1.345c-.388 0-.71-.127-.965-.383a1.303 1.303 0 0 1-.383-.962v-.977a6.514 6.514 0 0 1-5.103 2.401c-1.27 0-2.419-.317-3.45-.95-1.031-.632-1.842-1.507-2.432-2.625C.294 16.018 0 14.774 0 13.402c0-1.372.317-2.616.951-3.733A6.953 6.953 0 0 1 3.582 7.03c1.12-.642 2.357-.963 3.715-.963 1.357 0 2.586.32 3.688.963M9.69 17.689a4.569 4.569 0 0 0 1.68-1.767c.405-.747.607-1.587.607-2.52 0-.931-.202-1.776-.608-2.532A4.555 4.555 0 0 0 9.69 9.088a4.547 4.547 0 0 0-2.392-.646c-.882 0-1.679.216-2.393.646a4.651 4.651 0 0 0-1.692 1.782c-.414.756-.621 1.6-.621 2.532 0 .933.207 1.773.621 2.52a4.666 4.666 0 0 0 1.692 1.767c.714.431 1.511.647 2.393.647.88 0 1.679-.216 2.392-.647"/></g><g><path fill="#eb6419" d="M26.701 6.438c.53.281.793.633.793 1.055a.93.93 0 0 1-.026.264c-.159.563-.511.845-1.058.845-.088 0-.22-.018-.396-.054-.705-.122-1.278-.184-1.719-.184-1.268 0-2.291.29-3.066.87-.776.58-1.163 1.363-1.163 2.348v7.704c0 .422-.111.747-.33.976-.222.229-.552.343-.992.343-.423 0-.75-.11-.979-.33-.229-.22-.343-.55-.343-.989V7.493c0-.422.114-.748.343-.976.23-.229.556-.343.979-.343.88 0 1.322.44 1.322 1.319v.501a5.574 5.574 0 0 1 1.956-1.45 5.944 5.944 0 0 1 2.485-.529c.934 0 1.665.142 2.194.423"/></g><g><path fill="#eb6419" d="M30.454 0c.387 0 .71.123.965.37.255.245.384.571.384.975V8.47a6.514 6.514 0 0 1 5.103-2.401c1.268 0 2.418.316 3.45.95 1.03.633 1.84 1.508 2.431 2.624.591 1.117.887 2.362.887 3.734 0 1.371-.318 2.616-.952 3.733a6.95 6.95 0 0 1-2.631 2.638c-1.12.642-2.358.963-3.715.963-1.357 0-2.586-.32-3.688-.963a7.099 7.099 0 0 1-2.617-2.638c-.644-1.117-.965-2.362-.965-3.733V1.346c0-.405.123-.73.37-.977.247-.246.572-.369.978-.369m5.922 18.336c.881 0 1.68-.216 2.393-.647a4.639 4.639 0 0 0 1.692-1.781c.414-.755.622-1.6.622-2.532 0-.932-.208-1.772-.622-2.52a4.672 4.672 0 0 0-1.692-1.768 4.547 4.547 0 0 0-2.393-.646 4.545 4.545 0 0 0-4.071 2.414c-.406.748-.608 1.588-.608 2.52 0 .932.202 1.777.608 2.532.405.757.965 1.35 1.679 1.781.714.431 1.51.647 2.392.647"/></g><g><path fill="#eb6419" d="M56.831 7.005a6.747 6.747 0 0 1 2.592 2.598c.625 1.108.938 2.375.938 3.799 0 1.407-.308 2.664-.925 3.773a6.651 6.651 0 0 1-2.579 2.598c-1.102.625-2.358.937-3.768.937-1.412 0-2.672-.312-3.783-.937a6.622 6.622 0 0 1-2.592-2.598c-.617-1.109-.926-2.366-.926-3.773 0-1.424.309-2.69.926-3.799a6.622 6.622 0 0 1 2.592-2.598c1.11-.625 2.371-.937 3.783-.937 1.392 0 2.64.312 3.742.937m-6.165 2.07a4.452 4.452 0 0 0-1.679 1.768c-.405.757-.608 1.609-.608 2.559 0 .95.203 1.799.608 2.546a4.466 4.466 0 0 0 1.68 1.754c.713.423 1.52.634 2.419.634s1.705-.211 2.419-.634a4.37 4.37 0 0 0 1.665-1.754c.397-.747.595-1.596.595-2.546 0-.95-.198-1.802-.595-2.559a4.358 4.358 0 0 0-1.665-1.768c-.714-.422-1.52-.633-2.42-.633-.898 0-1.705.211-2.419.633"/></g><g><path fill="#7ac5bf" d="M74.818 8.442a.99.99 0 0 1 .264.686c0 .388-.194.712-.581.976-.177.123-.38.185-.608.185-.407 0-.75-.158-1.032-.475-.44-.475-.92-.822-1.44-1.042-.52-.22-1.116-.33-1.785-.33-1.357 0-2.459.453-3.305 1.359-.846.906-1.27 2.106-1.27 3.6 0 .95.2 1.8.596 2.547a4.376 4.376 0 0 0 1.666 1.754c.713.423 1.528.634 2.445.634 1.198 0 2.168-.308 2.908-.924.335-.246.661-.369.979-.369.246 0 .475.08.687.238.334.28.502.598.502.949 0 .264-.105.502-.317.712-1.27 1.178-2.856 1.768-4.759 1.768-1.392 0-2.644-.317-3.754-.95a6.77 6.77 0 0 1-2.604-2.625c-.626-1.117-.94-2.361-.94-3.733 0-1.407.305-2.669.913-3.786a6.565 6.565 0 0 1 2.551-2.612c1.093-.624 2.327-.936 3.702-.936 2.08 0 3.807.791 5.182 2.374"/></g><g><path fill="#7ac5bf" d="M88.236 7.005a6.738 6.738 0 0 1 2.591 2.598c.626 1.108.939 2.375.939 3.799 0 1.407-.309 2.664-.926 3.773a6.654 6.654 0 0 1-2.577 2.598c-1.102.625-2.358.937-3.768.937-1.41 0-2.67-.312-3.78-.937a6.622 6.622 0 0 1-2.592-2.598c-.617-1.109-.925-2.366-.925-3.773 0-1.424.308-2.69.925-3.799a6.622 6.622 0 0 1 2.592-2.598c1.11-.625 2.37-.937 3.78-.937 1.392 0 2.64.312 3.74.937m-6.159 2.07a4.453 4.453 0 0 0-1.68 1.768c-.405.757-.607 1.609-.607 2.559 0 .95.202 1.799.608 2.546a4.467 4.467 0 0 0 1.68 1.754c.713.423 1.519.634 2.418.634.899 0 1.706-.211 2.419-.634a4.376 4.376 0 0 0 1.666-1.754c.396-.747.595-1.596.595-2.546 0-.95-.199-1.802-.595-2.559a4.363 4.363 0 0 0-1.666-1.768c-.713-.422-1.52-.633-2.419-.633s-1.705.211-2.419.633"/></g><g><path fill="#7ac5bf" d="M105.09 6.83c.968.528 1.727 1.297 2.273 2.309.546 1.011.82 2.229.82 3.654v6.49a1.31 1.31 0 0 1-1.348 1.346 1.309 1.309 0 0 1-1.349-1.346v-6.49c0-1.425-.384-2.502-1.15-3.232-.766-.73-1.785-1.095-3.054-1.095-.74 0-1.414.15-2.022.449-.608.299-1.084.703-1.428 1.213a3.003 3.003 0 0 0-.515 1.715v7.44c0 .386-.124.708-.37.962-.248.256-.573.384-.979.384a1.307 1.307 0 0 1-1.348-1.346V7.516c0-.404.128-.73.383-.976s.577-.37.965-.37c.406 0 .731.124.979.37.246.247.37.572.37.976v.29a5.862 5.862 0 0 1 2.009-1.305 6.664 6.664 0 0 1 2.485-.462c1.216 0 2.31.264 3.279.791"/></g><g><path fill="#7ac5bf" d="M123.096 8.442a.987.987 0 0 1 .265.686c0 .388-.195.712-.582.976a1.035 1.035 0 0 1-.608.185 1.33 1.33 0 0 1-1.031-.475c-.44-.475-.922-.822-1.441-1.042-.52-.22-1.115-.33-1.785-.33-1.357 0-2.459.453-3.305 1.359-.845.906-1.269 2.106-1.269 3.6 0 .95.198 1.8.595 2.547a4.374 4.374 0 0 0 1.666 1.754c.714.423 1.529.634 2.445.634 1.199 0 2.168-.308 2.909-.924.335-.246.66-.369.978-.369.246 0 .476.08.687.238.335.28.503.598.503.949 0 .264-.106.502-.318.712-1.27 1.178-2.855 1.768-4.759 1.768-1.392 0-2.644-.317-3.754-.95a6.778 6.778 0 0 1-2.604-2.625c-.626-1.117-.939-2.361-.939-3.733 0-1.407.305-2.669.913-3.786a6.56 6.56 0 0 1 2.55-2.612c1.093-.624 2.327-.936 3.702-.936 2.08 0 3.807.791 5.182 2.374"/></g><g><path fill="#7ac5bf" d="M138.854 13.996c-.229.22-.52.33-.872.33h-10.046c.194 1.23.754 2.225 1.679 2.98.924.757 2.057 1.135 3.397 1.135.529 0 1.08-.096 1.652-.29.573-.193 1.044-.43 1.415-.712.247-.194.537-.29.872-.29.335 0 .599.088.793.263.317.265.476.563.476.897 0 .317-.141.58-.423.792-.6.474-1.345.862-2.234 1.16-.89.3-1.74.449-2.551.449-1.446 0-2.742-.312-3.887-.937a6.798 6.798 0 0 1-2.683-2.598c-.644-1.109-.965-2.366-.965-3.773s.304-2.668.912-3.785a6.582 6.582 0 0 1 2.538-2.612c1.084-.625 2.313-.937 3.688-.937 1.357 0 2.529.3 3.517.897.986.598 1.744 1.433 2.273 2.506.53 1.073.793 2.304.793 3.694 0 .334-.114.611-.344.83m-9.372-4.603c-.802.704-1.309 1.645-1.52 2.823h8.804c-.159-1.178-.6-2.12-1.322-2.823-.723-.703-1.665-1.055-2.829-1.055-1.287 0-2.331.352-3.133 1.055"/></g><g><path fill="#7ac5bf" d="M150.747 6.438c.529.281.793.633.793 1.055a.904.904 0 0 1-.027.264c-.158.563-.511.845-1.057.845a2.23 2.23 0 0 1-.397-.054c-.705-.122-1.278-.184-1.718-.184-1.269 0-2.291.29-3.067.87-.775.58-1.163 1.363-1.163 2.348v7.704c0 .422-.11.747-.331.976-.22.229-.55.343-.99.343-.424 0-.75-.11-.98-.33-.228-.22-.343-.55-.343-.989V7.493c0-.422.115-.748.344-.976.229-.229.555-.343.978-.343.881 0 1.322.44 1.322 1.319v.501a5.58 5.58 0 0 1 1.956-1.45 5.942 5.942 0 0 1 2.486-.529c.934 0 1.666.142 2.194.423"/></g><g><path fill="#7ac5bf" d="M163.627 6.83c.969.528 1.727 1.297 2.273 2.309.547 1.011.82 2.229.82 3.654v6.49a1.31 1.31 0 0 1-1.348 1.346 1.309 1.309 0 0 1-1.348-1.346v-6.49c0-1.425-.384-2.502-1.15-3.232-.767-.73-1.785-1.095-3.054-1.095-.74 0-1.415.15-2.023.449-.608.299-1.084.703-1.428 1.213a3.003 3.003 0 0 0-.515 1.715v7.44c0 .386-.123.708-.37.962-.247.256-.573.384-.979.384a1.307 1.307 0 0 1-1.348-1.346V7.516c0-.404.128-.73.383-.976s.578-.37.965-.37c.406 0 .732.124.979.37.247.247.37.572.37.976v.29a5.862 5.862 0 0 1 2.01-1.305 6.664 6.664 0 0 1 2.485-.462c1.216 0 2.308.264 3.278.791"/></g></g></g></g></svg>