<svg xmlns="http://www.w3.org/2000/svg" width="199" height="43" viewBox="0 0 199 43"><defs><clipPath id="4wh3a"><path d="M119.81 31.57h3.242v11.195h-3.243z"/></clipPath></defs><g><g><g><g><path fill="#73786b" d="M50.402 34.216c.342.21.608.508.8.895.19.387.286.836.286 1.346V39.7c0 .128-.04.232-.118.31a.419.419 0 0 1-.31.118.44.44 0 0 1-.315-.118.408.408 0 0 1-.124-.31v-3.243c0-.534-.137-.956-.41-1.267-.274-.311-.633-.468-1.076-.468-.473 0-.856.158-1.148.473-.293.315-.436.728-.428 1.24V39.7c0 .128-.04.232-.119.31a.419.419 0 0 1-.309.118.44.44 0 0 1-.315-.118.408.408 0 0 1-.124-.31v-3.243c0-.534-.137-.956-.411-1.267-.274-.311-.632-.468-1.075-.468-.466 0-.848.154-1.149.462-.3.308-.45.703-.45 1.182V39.7a.42.42 0 0 1-.118.31.421.421 0 0 1-.31.118.441.441 0 0 1-.316-.118.408.408 0 0 1-.123-.31v-5.293c0-.127.04-.233.123-.316a.428.428 0 0 1 .316-.123c.127 0 .23.04.31.123a.442.442 0 0 1 .118.316v.248c.21-.24.46-.426.749-.557a2.25 2.25 0 0 1 .94-.197c.412 0 .784.093 1.115.28.33.19.593.451.787.79.218-.339.502-.6.85-.79.35-.187.742-.28 1.177-.28a2.2 2.2 0 0 1 1.177.315"/></g><g><path fill="#73786b" d="M57.302 34.319c.477.274.852.651 1.126 1.131.274.481.412 1.014.412 1.6v2.646a.424.424 0 0 1-.44.428.439.439 0 0 1-.315-.118.408.408 0 0 1-.124-.31v-.676a2.764 2.764 0 0 1-1.002.85c-.406.208-.852.31-1.34.31a2.964 2.964 0 0 1-2.64-1.537 3.203 3.203 0 0 1-.4-1.593c0-.586.137-1.119.411-1.6a2.99 2.99 0 0 1 1.126-1.131 3.139 3.139 0 0 1 1.594-.411c.585 0 1.116.137 1.592.41m-.433 4.77a2.18 2.18 0 0 0 .816-.839c.199-.356.299-.756.299-1.199 0-.442-.1-.843-.299-1.2a2.23 2.23 0 0 0-1.975-1.155 2.243 2.243 0 0 0-1.988 1.155 2.421 2.421 0 0 0-.298 1.2c0 .443.099.843.298 1.2.199.356.473.636.822.838.349.203.737.304 1.166.304.427 0 .814-.101 1.159-.304"/></g><g><path fill="#73786b" d="M64.43 34.319c.477.274.852.651 1.126 1.131.274.481.411 1.014.411 1.6v2.646a.424.424 0 0 1-.44.428.439.439 0 0 1-.314-.118.408.408 0 0 1-.124-.31v-.676a2.764 2.764 0 0 1-1.002.85c-.406.208-.852.31-1.34.31a2.964 2.964 0 0 1-2.64-1.537 3.203 3.203 0 0 1-.4-1.593c0-.586.137-1.119.411-1.6a2.99 2.99 0 0 1 1.126-1.131 3.139 3.139 0 0 1 1.594-.411c.585 0 1.116.137 1.592.41m-.433 4.77a2.18 2.18 0 0 0 .816-.839c.199-.356.299-.756.299-1.199 0-.442-.1-.843-.299-1.2a2.23 2.23 0 0 0-1.975-1.155 2.243 2.243 0 0 0-1.988 1.155 2.421 2.421 0 0 0-.299 1.2c0 .443.1.843.299 1.2.199.356.473.636.822.838.349.203.737.304 1.166.304.427 0 .814-.101 1.159-.304"/></g><g><path fill="#73786b" d="M71.912 39.763c0 .113-.052.215-.157.305a.448.448 0 0 1-.27.102.371.371 0 0 1-.304-.16l-2.32-2.848-.844.766v1.767c0 .13-.04.232-.118.311a.419.419 0 0 1-.31.118.421.421 0 0 1-.31-.118.419.419 0 0 1-.118-.31v-7.94c0-.127.04-.23.118-.31a.422.422 0 0 1 .31-.118c.128 0 .231.04.31.118a.42.42 0 0 1 .118.31v5.125l3.175-2.872a.391.391 0 0 1 .27-.112.35.35 0 0 1 .281.134c.083.097.124.187.124.27 0 .106-.048.2-.146.282l-2.251 2.04 2.341 2.882c.068.074.101.16.101.258"/></g><g><path fill="#73786b" d="M81.378 34.082a.408.408 0 0 1 .123.309v5.294c0 .127-.04.233-.123.315a.428.428 0 0 1-.316.123.406.406 0 0 1-.309-.123.44.44 0 0 1-.118-.315V39.3a2.636 2.636 0 0 1-.901.654 2.786 2.786 0 0 1-1.148.236 3.02 3.02 0 0 1-1.436-.337 2.432 2.432 0 0 1-.997-.986c-.24-.43-.36-.947-.36-1.549v-2.928c0-.12.041-.221.124-.304a.414.414 0 0 1 .304-.124.426.426 0 0 1 .439.428v2.928c0 .668.186 1.178.558 1.527.371.349.857.523 1.458.523.367 0 .7-.07.996-.214.296-.142.531-.338.704-.59.173-.253.259-.531.259-.84V34.39c0-.127.039-.231.118-.31a.42.42 0 0 1 .31-.118c.127 0 .232.04.315.119"/></g><g><path fill="#73786b" d="M89.725 34.071a.365.365 0 0 1 .101.27c0 .09-.015.17-.045.237l-1.756 5.27a.415.415 0 0 1-.406.282.464.464 0 0 1-.264-.078.352.352 0 0 1-.152-.203l-1.352-4.483-1.35 4.483a.383.383 0 0 1-.158.208.44.44 0 0 1-.248.073.412.412 0 0 1-.253-.078.516.516 0 0 1-.164-.203l-1.756-5.271a.969.969 0 0 1-.034-.236c0-.249.12-.372.36-.372.21 0 .354.109.429.327l1.44 4.392 1.33-4.381a.489.489 0 0 1 .151-.249c.071-.06.163-.089.276-.089.113 0 .204.03.276.09.071.06.122.142.152.248l1.295 4.358 1.43-4.37c.074-.217.214-.326.416-.326a.38.38 0 0 1 .282.101"/></g><g><path fill="#73786b" d="M93.347 34.297v-2.523a.44.44 0 0 1 .119-.316.407.407 0 0 1 .309-.123c.127 0 .233.04.315.123a.432.432 0 0 1 .124.316v3.3c.262-.36.597-.644 1.002-.85.405-.207.852-.31 1.34-.31.57 0 1.086.137 1.548.41.461.275.826.65 1.092 1.127.267.477.4 1.008.4 1.593a3.18 3.18 0 0 1-.41 1.6c-.275.48-.65.857-1.127 1.131a3.134 3.134 0 0 1-1.593.412 3.134 3.134 0 0 1-1.594-.412 2.994 2.994 0 0 1-1.126-1.131 3.18 3.18 0 0 1-.41-1.6v-2.646c0-.045.003-.08.01-.101m3.12 5.101a2.238 2.238 0 0 0 1.987-1.154c.199-.358.299-.757.299-1.2 0-.443-.1-.842-.299-1.199a2.177 2.177 0 0 0-.822-.839 2.28 2.28 0 0 0-1.165-.304c-.593 0-1.098.188-1.515.564a2.251 2.251 0 0 0-.737 1.44c0 .022-.004.042-.011.056a2.698 2.698 0 0 0-.012.282c0 .443.1.842.299 1.2.199.357.47.638.816.844.345.208.732.31 1.16.31"/></g><g><path fill="#73786b" d="M104.903 34.297c.428.258.76.617.996 1.075.237.458.355.98.355 1.565 0 .12-.038.216-.113.287a.407.407 0 0 1-.292.107H101.3c.06.617.3 1.115.72 1.498.42.384.946.575 1.576.575.27 0 .543-.047.817-.142.273-.092.494-.21.659-.354a.492.492 0 0 1 .304-.112c.082 0 .165.03.247.09.098.09.147.191.147.304a.342.342 0 0 1-.124.258 3.016 3.016 0 0 1-.946.525c-.382.14-.75.208-1.103.208-.601 0-1.138-.134-1.61-.4a2.846 2.846 0 0 1-1.11-1.114 3.251 3.251 0 0 1-.4-1.616c0-.608.127-1.152.378-1.628.252-.477.6-.849 1.048-1.115.445-.267.954-.4 1.525-.4.555 0 1.047.13 1.475.389m-2.894.917c-.375.353-.604.82-.687 1.396h4.121c-.06-.577-.27-1.043-.63-1.396s-.823-.529-1.385-.529c-.57 0-1.044.176-1.419.53"/></g><g><path fill="#73786b" d="M112.93 34.398v2.646c0 .587-.137 1.12-.411 1.6a2.98 2.98 0 0 1-1.126 1.131 3.125 3.125 0 0 1-1.594.412 3.127 3.127 0 0 1-1.593-.412 2.985 2.985 0 0 1-1.126-1.131 3.172 3.172 0 0 1-.41-1.6c0-.585.133-1.116.4-1.593.265-.477.63-.852 1.092-1.127.46-.273.977-.41 1.547-.41.488 0 .935.103 1.34.31a2.8 2.8 0 0 1 1.003.85v-3.3a.424.424 0 0 1 .439-.44c.127 0 .23.041.309.125.08.082.118.188.118.315v2.523a.335.335 0 0 1 .012.1m-1.976 4.691c.344-.206.616-.487.815-.844.199-.357.298-.757.298-1.2 0-.127-.004-.22-.011-.282a.12.12 0 0 1-.011-.055c-.075-.586-.32-1.066-.737-1.441-.416-.376-.92-.564-1.512-.564-.427 0-.816.102-1.164.304a2.185 2.185 0 0 0-.82.84 2.42 2.42 0 0 0-.299 1.199c0 .442.1.842.299 1.2a2.232 2.232 0 0 0 1.984 1.154c.427 0 .813-.103 1.158-.31"/></g><g><path fill="#73786b" d="M117.992 34.025c.185.082.276.198.276.349a.34.34 0 0 1-.01.1c-.03.106-.078.177-.141.215a.523.523 0 0 1-.265.056c-.068 0-.184-.007-.35-.022a2.535 2.535 0 0 0-.27-.012c-.562 0-1.022.15-1.379.451-.357.3-.534.691-.534 1.17V39.7c0 .135-.038.241-.113.316-.075.076-.18.112-.316.112-.134 0-.24-.036-.315-.112a.426.426 0 0 1-.112-.316v-5.304c0-.135.038-.24.112-.315a.427.427 0 0 1 .315-.113c.136 0 .24.038.316.113.075.075.113.18.113.315v.496a2.23 2.23 0 0 1 .833-.733 2.362 2.362 0 0 1 1.092-.258c.315 0 .565.041.748.124"/></g><g><path fill="#73786b" d="M120.169 31.739a.606.606 0 0 0-.428-.169.618.618 0 0 0-.439.169.573.573 0 0 0-.18.44c0 .172.058.319.174.439.116.12.26.18.433.18a.6.6 0 0 0 .44-.18c.12-.12.18-.267.18-.44a.576.576 0 0 0-.18-.44m-.743 2.355a.428.428 0 0 0-.124.315v5.282c0 .127.041.233.124.316a.427.427 0 0 0 .315.123c.128 0 .231-.04.31-.123a.436.436 0 0 0 .118-.316v-5.282a.435.435 0 0 0-.119-.315.407.407 0 0 0-.309-.124.428.428 0 0 0-.315.124"/></g><g><g/><g clip-path="url(#4wh3a)"><path fill="#73786b" d="M122.545 41.492c-.225.398-.537.709-.935.934a2.71 2.71 0 0 1-1.362.339.427.427 0 0 1-.439-.44.426.426 0 0 1 .439-.44c.518 0 .942-.165 1.272-.495.33-.33.496-.75.496-1.261v-5.72c0-.128.039-.234.119-.316a.404.404 0 0 1 .309-.124c.127 0 .232.04.315.124a.43.43 0 0 1 .124.315v5.72c0 .511-.112.965-.338 1.364m.327-9.753c.12.112.18.259.18.44 0 .172-.06.319-.18.439a.602.602 0 0 1-.44.18.607.607 0 0 1-.608-.619c0-.181.06-.328.18-.44a.621.621 0 0 1 .44-.169c.165 0 .307.056.428.169"/></g></g><g><path fill="#73786b" d="M126.182 32.612c-.251.33-.377.77-.377 1.318v.258h1.351c.12 0 .216.037.287.108.072.07.108.163.108.275a.359.359 0 0 1-.108.265.385.385 0 0 1-.287.107h-1.351v4.742c0 .135-.04.242-.118.321a.45.45 0 0 1-.332.118c-.12 0-.22-.04-.298-.118a.434.434 0 0 1-.119-.321v-4.742h-.72a.383.383 0 0 1-.287-.107.356.356 0 0 1-.107-.265c0-.112.034-.204.107-.275a.386.386 0 0 1 .287-.108h.72v-.213c0-.803.207-1.446.62-1.926.412-.48.994-.721 1.744-.721.128 0 .233.038.315.113a.364.364 0 0 1 .124.281.364.364 0 0 1-.124.282.45.45 0 0 1-.315.112c-.495 0-.868.165-1.12.496"/></g><g><path fill="#73786b" d="M131.032 34.297v-2.523a.44.44 0 0 1 .119-.316.407.407 0 0 1 .309-.123c.128 0 .233.04.315.123a.432.432 0 0 1 .125.316v3.3c.262-.36.596-.644 1-.85.406-.207.853-.31 1.341-.31.57 0 1.087.137 1.548.41.462.275.826.65 1.092 1.127.267.477.4 1.008.4 1.593a3.18 3.18 0 0 1-.41 1.6c-.275.48-.65.857-1.127 1.131a3.134 3.134 0 0 1-1.593.412 3.134 3.134 0 0 1-1.593-.412 2.994 2.994 0 0 1-1.126-1.131 3.18 3.18 0 0 1-.411-1.6v-2.646c0-.045.004-.08.011-.101m3.119 5.101a2.238 2.238 0 0 0 1.987-1.154c.2-.358.299-.757.299-1.2 0-.443-.1-.842-.299-1.199a2.177 2.177 0 0 0-.821-.839 2.28 2.28 0 0 0-1.166-.304c-.593 0-1.098.188-1.514.564a2.251 2.251 0 0 0-.737 1.44c0 .022-.005.042-.012.056a2.698 2.698 0 0 0-.011.282c0 .443.099.842.298 1.2.199.357.47.638.816.844.345.208.732.31 1.16.31"/></g><g><path fill="#73786b" d="M142.588 34.297c.428.258.76.617.996 1.075.237.458.355.98.355 1.565 0 .12-.038.216-.113.287a.407.407 0 0 1-.292.107h-4.549c.06.617.3 1.115.72 1.498.42.384.946.575 1.577.575.27 0 .542-.047.816-.142.274-.092.494-.21.66-.354a.492.492 0 0 1 .303-.112c.082 0 .165.03.247.09.098.09.147.191.147.304a.342.342 0 0 1-.124.258 3.016 3.016 0 0 1-.945.525c-.383.14-.751.208-1.104.208-.6 0-1.137-.134-1.61-.4a2.846 2.846 0 0 1-1.11-1.114 3.251 3.251 0 0 1-.4-1.616c0-.608.127-1.152.378-1.628.252-.477.6-.849 1.048-1.115.446-.267.955-.4 1.525-.4.556 0 1.047.13 1.475.389m-2.893.917c-.376.353-.605.82-.688 1.396h4.121c-.06-.577-.27-1.043-.63-1.396s-.822-.529-1.385-.529c-.57 0-1.043.176-1.418.53"/></g><g><path fill="#73786b" d="M147.913 39.385a.45.45 0 0 1 .113.314c0 .12-.045.222-.135.305a.48.48 0 0 1-.338.123h-.236a2.007 2.007 0 0 1-1.808-1.064 2.304 2.304 0 0 1-.265-1.11v-3.006h-.73a.386.386 0 0 1-.288-.107.357.357 0 0 1-.107-.265c0-.113.035-.205.107-.276a.388.388 0 0 1 .288-.107h.73v-1.745a.44.44 0 0 1 .119-.316.407.407 0 0 1 .31-.124c.127 0 .232.041.315.124a.426.426 0 0 1 .124.316v1.745h1.272a.39.39 0 0 1 .287.107.374.374 0 0 1 .108.276.36.36 0 0 1-.108.265.388.388 0 0 1-.287.107h-1.272v3.007c0 .382.112.696.338.94.225.244.514.366.867.366h.304c.12 0 .217.042.292.125"/></g><g><path fill="#73786b" d="M153.03 34.297c.428.258.76.617.997 1.075.236.458.355.98.355 1.565 0 .12-.038.216-.113.287a.407.407 0 0 1-.293.107h-4.548c.06.617.299 1.115.72 1.498.42.384.946.575 1.576.575.27 0 .542-.047.817-.142.273-.092.493-.21.658-.354a.492.492 0 0 1 .304-.112c.083 0 .165.03.248.09.097.09.147.191.147.304a.342.342 0 0 1-.124.258 3.016 3.016 0 0 1-.946.525c-.383.14-.751.208-1.104.208-.6 0-1.137-.134-1.61-.4a2.846 2.846 0 0 1-1.109-1.114 3.251 3.251 0 0 1-.4-1.616c0-.608.126-1.152.377-1.628.252-.477.6-.849 1.048-1.115.446-.267.955-.4 1.526-.4.555 0 1.047.13 1.474.389m-2.893.917c-.376.353-.605.82-.687 1.396h4.12c-.06-.577-.27-1.043-.63-1.396s-.822-.529-1.385-.529c-.57 0-1.043.176-1.418.53"/></g><g><path fill="#73786b" d="M158.881 34.025c.184.082.276.198.276.349a.34.34 0 0 1-.011.1c-.03.106-.077.177-.14.215a.523.523 0 0 1-.265.056c-.068 0-.184-.007-.35-.022a2.535 2.535 0 0 0-.27-.012c-.562 0-1.023.15-1.379.451-.357.3-.535.691-.535 1.17V39.7c0 .135-.037.241-.113.316-.075.076-.18.112-.315.112s-.24-.036-.315-.112a.426.426 0 0 1-.112-.316v-5.304c0-.135.037-.24.112-.315a.427.427 0 0 1 .315-.113c.136 0 .24.038.315.113.076.075.113.18.113.315v.496a2.23 2.23 0 0 1 .834-.733 2.362 2.362 0 0 1 1.092-.258c.315 0 .564.041.748.124"/></g><g><path fill="#73786b" d="M159.212 39.188c.128.13.191.287.191.467 0 .18-.063.334-.19.462a.632.632 0 0 1-.462.19.631.631 0 0 1-.462-.19.627.627 0 0 1-.191-.462c0-.187.065-.345.196-.473a.637.637 0 0 1 .457-.19c.18 0 .333.064.461.196"/></g><g><path fill="#eb6419" d="M13.09 8.398a8.483 8.483 0 0 1 3.12 3.151c.765 1.334 1.149 2.82 1.149 4.459v7.028c0 .461-.153.846-.457 1.15-.305.305-.689.456-1.15.456-.462 0-.846-.151-1.15-.457-.305-.303-.456-.688-.456-1.15V21.87a7.747 7.747 0 0 1-6.08 2.868c-1.514 0-2.884-.378-4.112-1.135-1.229-.755-2.196-1.8-2.899-3.135C.351 19.133 0 17.647 0 16.007c0-1.637.378-3.124 1.134-4.458a8.295 8.295 0 0 1 3.134-3.15c1.335-.768 2.81-1.151 4.427-1.151 1.617 0 3.082.383 4.395 1.15m-1.544 12.73a5.451 5.451 0 0 0 2-2.11c.484-.893.725-1.896.725-3.01 0-1.113-.241-2.121-.724-3.025a5.435 5.435 0 0 0-2-2.128c-.852-.514-1.802-.772-2.852-.772-1.05 0-2 .258-2.851.772a5.55 5.55 0 0 0-2.017 2.128c-.493.904-.74 1.912-.74 3.025 0 1.114.247 2.117.74 3.01a5.568 5.568 0 0 0 2.017 2.11c.85.516 1.8.773 2.851.773 1.05 0 2-.257 2.851-.772"/></g><g><path fill="#eb6419" d="M31.818 7.69c.63.336.945.756.945 1.26 0 .147-.01.253-.031.315-.19.673-.61 1.01-1.26 1.01a2.63 2.63 0 0 1-.473-.065c-.84-.146-1.523-.22-2.048-.22-1.512 0-2.73.347-3.654 1.04-.925.693-1.386 1.628-1.386 2.804v9.202c0 .504-.132.893-.394 1.166-.264.273-.657.41-1.182.41-.504 0-.893-.131-1.165-.395-.274-.262-.41-.656-.41-1.18V8.95c0-.504.136-.893.41-1.166.272-.273.661-.41 1.165-.41 1.05 0 1.576.526 1.576 1.576v.599a6.643 6.643 0 0 1 2.33-1.733 7.069 7.069 0 0 1 2.962-.63c1.113 0 1.985.168 2.615.503"/></g><g><path fill="#eb6419" d="M36.29 0c.461 0 .845.147 1.15.441.303.294.457.683.457 1.166v8.508a7.747 7.747 0 0 1 6.08-2.868c1.512 0 2.882.379 4.111 1.135 1.229.757 2.195 1.801 2.898 3.135.704 1.334 1.056 2.82 1.056 4.46 0 1.638-.378 3.125-1.134 4.458a8.292 8.292 0 0 1-3.135 3.152c-1.334.767-2.81 1.15-4.426 1.15-1.618 0-3.082-.383-4.395-1.15a8.47 8.47 0 0 1-3.119-3.152c-.767-1.333-1.15-2.82-1.15-4.458V1.607c0-.483.147-.872.44-1.166C35.419.147 35.807 0 36.29 0m7.058 21.9c1.05 0 2-.256 2.85-.771A5.535 5.535 0 0 0 48.215 19c.493-.902.74-1.911.74-3.024 0-1.114-.247-2.117-.74-3.01a5.575 5.575 0 0 0-2.016-2.112c-.851-.514-1.802-.772-2.851-.772-1.05 0-2 .258-2.852.772a5.458 5.458 0 0 0-2 2.112c-.483.893-.725 1.896-.725 3.01 0 1.113.242 2.122.725 3.024a5.421 5.421 0 0 0 2 2.128c.851.515 1.801.772 2.852.772"/></g><g><path fill="#eb6419" d="M67.72 8.367a8.05 8.05 0 0 1 3.09 3.104c.745 1.323 1.118 2.836 1.118 4.537 0 1.681-.368 3.182-1.103 4.506a7.935 7.935 0 0 1-3.073 3.104c-1.313.746-2.81 1.119-4.49 1.119-1.682 0-3.185-.373-4.508-1.119a7.9 7.9 0 0 1-3.088-3.104c-.736-1.324-1.104-2.825-1.104-4.506 0-1.701.368-3.214 1.104-4.537a7.9 7.9 0 0 1 3.088-3.104c1.323-.746 2.826-1.12 4.507-1.12 1.66 0 3.146.374 4.46 1.12m-7.346 2.473a5.312 5.312 0 0 0-2 2.111c-.484.904-.725 1.922-.725 3.057 0 1.134.241 2.148.724 3.041a5.329 5.329 0 0 0 2 2.095c.851.505 1.812.757 2.884.757 1.071 0 2.031-.252 2.882-.757a5.215 5.215 0 0 0 1.985-2.095c.472-.893.709-1.907.709-3.041 0-1.135-.237-2.153-.71-3.057a5.2 5.2 0 0 0-1.984-2.11c-.85-.505-1.811-.758-2.882-.758-1.072 0-2.033.253-2.883.757"/></g><g><path fill="#7ac5bf" d="M89.154 10.084c.21.231.315.504.315.82 0 .462-.231.85-.693 1.165-.21.147-.452.22-.724.22-.484 0-.893-.189-1.23-.567-.525-.567-1.097-.982-1.716-1.245-.62-.262-1.33-.394-2.126-.394-1.618 0-2.93.541-3.939 1.623-1.008 1.082-1.512 2.517-1.512 4.302 0 1.134.236 2.148.708 3.041a5.221 5.221 0 0 0 1.986 2.095c.85.505 1.821.757 2.914.757 1.428 0 2.583-.368 3.465-1.104.4-.294.788-.44 1.166-.44.294 0 .566.094.819.284.399.335.598.714.598 1.134 0 .315-.125.599-.378.85-1.512 1.408-3.402 2.112-5.67 2.112-1.66 0-3.15-.378-4.474-1.135a8.078 8.078 0 0 1-3.103-3.135c-.746-1.334-1.119-2.82-1.119-4.46 0-1.68.363-3.187 1.087-4.521a7.833 7.833 0 0 1 3.04-3.12c1.302-.745 2.773-1.118 4.412-1.118 2.477 0 4.536.945 6.174 2.835"/></g><g><path fill="#7ac5bf" d="M105.143 8.367a8.039 8.039 0 0 1 3.088 3.104c.745 1.323 1.118 2.836 1.118 4.537 0 1.681-.367 3.182-1.102 4.506a7.938 7.938 0 0 1-3.072 3.104c-1.313.746-2.81 1.119-4.49 1.119-1.68 0-3.181-.373-4.504-1.119a7.9 7.9 0 0 1-3.088-3.104c-.735-1.324-1.102-2.825-1.102-4.506 0-1.701.367-3.214 1.102-4.537a7.9 7.9 0 0 1 3.088-3.104c1.323-.746 2.824-1.12 4.505-1.12 1.659 0 3.145.374 4.457 1.12m-7.34 2.473a5.314 5.314 0 0 0-2 2.111c-.484.904-.725 1.922-.725 3.057 0 1.134.24 2.148.724 3.041a5.33 5.33 0 0 0 2.001 2.095c.851.505 1.811.757 2.883.757 1.07 0 2.032-.252 2.882-.757a5.221 5.221 0 0 0 1.985-2.095c.472-.893.709-1.907.709-3.041 0-1.135-.237-2.153-.709-3.057a5.206 5.206 0 0 0-1.985-2.11c-.85-.505-1.811-.758-2.882-.758-1.072 0-2.032.253-2.883.757"/></g><g><path fill="#7ac5bf" d="M125.226 8.158c1.155.63 2.058 1.55 2.71 2.758.65 1.208.976 2.662.976 4.364v7.752c0 .462-.152.846-.456 1.15-.305.305-.689.458-1.15.458-.463 0-.846-.153-1.15-.458-.305-.304-.457-.688-.457-1.15V15.28c0-1.702-.457-2.988-1.37-3.86-.914-.872-2.127-1.308-3.64-1.308-.881 0-1.685.179-2.41.536-.723.357-1.291.84-1.701 1.45a3.593 3.593 0 0 0-.614 2.048v8.886c0 .462-.147.846-.44 1.15-.295.305-.684.458-1.167.458-.462 0-.846-.153-1.15-.458-.304-.304-.456-.688-.456-1.15V8.978c0-.483.152-.872.456-1.167.304-.294.688-.44 1.15-.44.483 0 .872.146 1.166.44.294.295.441.684.441 1.167v.347a6.984 6.984 0 0 1 2.395-1.56 7.924 7.924 0 0 1 2.961-.552c1.45 0 2.751.315 3.906.945"/></g><g><path fill="#7ac5bf" d="M146.683 10.084c.21.231.316.504.316.82 0 .462-.232.85-.694 1.165-.21.147-.451.22-.724.22-.484 0-.893-.189-1.229-.567-.525-.567-1.098-.982-1.717-1.245-.619-.262-1.328-.394-2.126-.394-1.618 0-2.93.541-3.939 1.623-1.007 1.082-1.512 2.517-1.512 4.302 0 1.134.236 2.148.71 3.041a5.22 5.22 0 0 0 1.984 2.095c.85.505 1.822.757 2.914.757 1.428 0 2.583-.368 3.465-1.104.4-.294.788-.44 1.166-.44.294 0 .567.094.82.284.398.335.598.714.598 1.134 0 .315-.126.599-.378.85-1.513 1.408-3.402 2.112-5.671 2.112-1.66 0-3.15-.378-4.474-1.135a8.087 8.087 0 0 1-3.103-3.135c-.746-1.334-1.118-2.82-1.118-4.46 0-1.68.363-3.187 1.087-4.521a7.828 7.828 0 0 1 3.04-3.12c1.301-.745 2.772-1.118 4.41-1.118 2.479 0 4.537.945 6.175 2.835"/></g><g><path fill="#7ac5bf" d="M165.461 16.717c-.273.263-.619.394-1.04.394h-11.97c.23 1.47.898 2.658 2 3.56 1.102.905 2.452 1.356 4.048 1.356a6.12 6.12 0 0 0 1.97-.347c.681-.23 1.243-.514 1.685-.85.294-.232.64-.347 1.04-.347.398 0 .713.106.944.315.378.316.567.672.567 1.071 0 .379-.168.694-.504.946-.714.567-1.602 1.03-2.662 1.386-1.06.358-2.074.536-3.04.536-1.722 0-3.267-.373-4.631-1.119a8.11 8.11 0 0 1-3.198-3.104c-.767-1.323-1.15-2.825-1.15-4.506 0-1.68.363-3.187 1.088-4.521a7.853 7.853 0 0 1 3.023-3.12c1.292-.746 2.757-1.12 4.396-1.12 1.617 0 3.013.358 4.19 1.072 1.175.715 2.079 1.712 2.709 2.994.63 1.281.945 2.752.945 4.412 0 .399-.137.73-.41.992m-11.168-5.499c-.956.84-1.56 1.965-1.811 3.372h10.49c-.189-1.407-.714-2.531-1.575-3.372-.86-.84-1.984-1.26-3.37-1.26-1.534 0-2.779.42-3.734 1.26"/></g><g><path fill="#7ac5bf" d="M179.633 7.69c.63.336.945.756.945 1.26 0 .147-.01.253-.032.315-.189.673-.61 1.01-1.26 1.01a2.65 2.65 0 0 1-.473-.065c-.84-.146-1.523-.22-2.048-.22-1.511 0-2.73.347-3.654 1.04-.924.693-1.386 1.628-1.386 2.804v9.202c0 .504-.132.893-.394 1.166-.263.273-.656.41-1.181.41-.504 0-.893-.131-1.166-.395-.273-.262-.41-.656-.41-1.18V8.95c0-.504.137-.893.41-1.166.273-.273.662-.41 1.166-.41 1.05 0 1.575.526 1.575 1.576v.599a6.65 6.65 0 0 1 2.331-1.733 7.066 7.066 0 0 1 2.962-.63c1.113 0 1.985.168 2.615.503"/></g><g><path fill="#7ac5bf" d="M194.98 8.158c1.155.63 2.058 1.55 2.71 2.758.65 1.208.976 2.662.976 4.364v7.752c0 .462-.152.846-.456 1.15-.305.305-.689.458-1.15.458-.463 0-.846-.153-1.15-.458-.305-.304-.457-.688-.457-1.15V15.28c0-1.702-.457-2.988-1.37-3.86-.914-.872-2.127-1.308-3.64-1.308-.881 0-1.685.179-2.41.536-.723.357-1.291.84-1.701 1.45a3.593 3.593 0 0 0-.614 2.048v8.886c0 .462-.147.846-.44 1.15-.295.305-.684.458-1.167.458-.462 0-.846-.153-1.15-.458-.304-.304-.456-.688-.456-1.15V8.978c0-.483.152-.872.456-1.167.304-.294.688-.44 1.15-.44.483 0 .872.146 1.166.44.294.295.441.684.441 1.167v.347a6.984 6.984 0 0 1 2.395-1.56 7.924 7.924 0 0 1 2.961-.552c1.45 0 2.751.315 3.906.945"/></g></g></g></g></svg>